<svg width="269" height="132" viewBox="0 0 269 132" fill="none" xmlns="http://www.w3.org/2000/svg">
<path d="M83.9297 4.83594C86.2734 4.83594 88.8906 4.99219 91.7812 5.30469C94.75 5.53906 98.7344 6.08594 103.734 6.94531C108.734 7.72656 113.812 9.25 118.969 11.5156C124.125 13.7031 128.656 16.4375 132.562 19.7188C138.344 24.5625 142.875 30.5781 146.156 37.7656C149.438 44.9531 151.078 52.6484 151.078 60.8516C151.078 66.6328 150.18 72.5703 148.383 78.6641C146.586 84.7578 143.539 91.0078 139.242 97.4141C135.023 103.742 129.828 109.367 123.656 114.289C117.484 119.211 109.555 123.273 99.8672 126.477C90.2578 129.602 79.6328 131.164 67.9922 131.164C59.0859 131.164 51 130.305 43.7344 128.586C36.4688 126.867 30.4531 124.523 25.6875 121.555C21 118.586 16.9375 115.305 13.5 111.711C10.0625 108.039 7.44531 104.055 5.64844 99.7578C3.85156 95.3828 2.5625 91.3203 1.78125 87.5703C1 83.7422 0.609375 79.875 0.609375 75.9688C0.609375 69.5625 1.58594 63.1172 3.53906 56.6328C5.57031 50.1484 8.8125 43.7812 13.2656 37.5312C17.7188 31.2812 23.1094 25.7344 29.4375 20.8906C35.7656 16.0469 43.6172 12.1797 52.9922 9.28906C62.4453 6.32031 72.7578 4.83594 83.9297 4.83594ZM81.9375 23.5859C75.6875 23.5859 70.1016 26.8281 65.1797 33.3125C60.3359 39.7969 56.7031 47.6094 54.2812 56.75C51.9375 65.8906 50.7656 75.1484 50.7656 84.5234C50.7656 89.5234 51.3125 93.8984 52.4062 97.6484C53.5 101.398 54.75 104.211 56.1562 106.086C57.6406 107.961 59.3203 109.445 61.1953 110.539C63.0703 111.633 64.5938 112.297 65.7656 112.531C66.9375 112.766 68.0312 112.883 69.0469 112.883C74.3594 112.883 79.1641 110.734 83.4609 106.438C87.8359 102.062 91.2344 96.6328 93.6562 90.1484C96.0781 83.6641 97.9141 77.1016 99.1641 70.4609C100.492 63.8203 101.156 57.7266 101.156 52.1797C101.156 49.9922 101 47.7656 100.688 45.5C100.375 43.1562 99.7891 40.6562 98.9297 38C98.0703 35.2656 96.9375 32.8828 95.5312 30.8516C94.2031 28.7422 92.3672 27.0234 90.0234 25.6953C87.6797 24.2891 84.9844 23.5859 81.9375 23.5859ZM263.25 0.265625L265.945 49.4844L260.203 50.1875C259.656 47.8438 259.109 45.8125 258.562 44.0938C258.094 42.2969 257.156 39.9922 255.75 37.1797C254.344 34.3672 252.742 32.0625 250.945 30.2656C249.148 28.4688 246.688 26.8672 243.562 25.4609C240.438 24.0547 236.922 23.3516 233.016 23.3516C220.906 23.3516 210.594 28.3516 202.078 38.3516C193.562 48.2734 189.305 60.2266 189.305 74.2109C189.305 85.5391 192.352 94.4062 198.445 100.812C204.617 107.219 212.469 110.422 222 110.422C226.453 110.422 230.75 109.758 234.891 108.43C239.031 107.023 242.469 105.461 245.203 103.742C248.016 102.023 250.789 99.7969 253.523 97.0625C256.336 94.3281 258.367 92.1797 259.617 90.6172C260.945 88.9766 262.391 87.0234 263.953 84.7578L268.758 87.6875L248.133 125.656C231.648 129.328 217.156 131.164 204.656 131.164C196.297 131.164 188.68 130.383 181.805 128.82C174.93 127.336 169.148 125.266 164.461 122.609C159.773 119.953 155.711 116.984 152.273 113.703C148.914 110.344 146.258 106.672 144.305 102.688C142.43 98.7031 141.062 94.8359 140.203 91.0859C139.344 87.2578 138.914 83.3906 138.914 79.4844C138.914 73.5469 139.773 67.6094 141.492 61.6719C143.211 55.6562 145.828 49.7188 149.344 43.8594C152.938 37.9219 157.781 32.3359 163.875 27.1016C169.969 21.8672 177.039 17.4922 185.086 13.9766C199.227 7.72656 216.18 4.60156 235.945 4.60156C236.18 4.60156 237.195 4.64062 238.992 4.71875C240.867 4.79688 242.469 4.83594 243.797 4.83594C248.328 5.14844 250.906 5.30469 251.531 5.30469C256.375 5.30469 260.281 3.625 263.25 0.265625Z" fill="black"/>
</svg>
